2200 0 1 0           
15 SolidWorks 2015 12 ACIS 22.0 NT 24 Tue Nov 03 10:45:26 2015 
1 9.9999999999999995e-007 1e-010 
-0 body $1 -1 -1 $-1 $2 $-1 $-1 F #
-1 name_attrib-gen-attrib $-1 -1 $-1 $-1 $0 2 1 1 1 1 1 1 1 1 1 1 1 1 1 0 1 1 1 @25 Cable-Lug-KRD-25-10-Nelco #
-2 lump $3 -1 -1 $-1 $-1 $4 $0 F #
-3 rgb_color-st-attrib $-1 -1 $-1 $-1 $2 2 1 2 1 1 1 1 1 1 1 1 1 1 1 0 1 1 1 0.75294117647058822 0.75294117647058822 0.75294117647058822 #
-4 shell $-1 -1 -1 $-1 $-1 $-1 $5 $-1 $2 F #
-5 face $6 -1 -1 $-1 $7 $8 $4 $-1 $9 reversed single F T 0.51499686814373591 0.85785401100088787 -3.1415926535897931 0 #
-6 integer_attrib-name_attrib-gen-attrib $-1 -1 $-1 $-1 $5 2 1 2 1 1 1 1 1 1 1 1 1 1 1 0 1 1 1 @19 Cut-Inspection-Hole 0 #
-7 face $10 -1 -1 $-1 $11 $12 $4 $-1 $13 reversed single F T -2.4758891444955049 0 -3.1415926535897931 0 #
-8 loop $-1 -1 -1 $-1 $-1 $14 $5 F unknown #
-9 cone-surface $-1 -1 -1 $-1 0 27.167433717357728 -8.1037335577546372 0 0 1 5.2499999999999982 0 0 1 I I 0 1 5.2499999999999982 forward I I I I #
-10 integer_attrib-name_attrib-gen-attrib $-1 -1 $-1 $-1 $7 2 1 2 1 1 1 1 1 1 1 1 1 1 1 0 1 1 1 @19 Cut-Inspection-Hole 0 #
-11 face $15 -1 -1 $-1 $16 $17 $4 $-1 $18 forward single F T 2.5959248847106409 4.98942628862196 -0.014441100369084726 3.1560337539589893 #
-12 loop $-1 -1 -1 $-1 $-1 $19 $7 F unknown #
-13 cone-surface $-1 -1 -1 $-1 0 0 0 -0 -1 -0 0 0 -3.3500000000000005 1 I I 0 1 3.3500000000000005 forward I I I I #
-14 coedge $-1 -1 -1 $-1 $20 $21 $22 $23 reversed $8 $-1 #
-15 integer_attrib-name_attrib-gen-attrib $-1 -1 $-1 $-1 $11 2 1 2 1 1 1 1 1 1 1 1 1 1 1 0 1 1 1 @19 Cut-Inspection-Hole 0 #
-16 face $24 -1 -1 $-1 $25 $26 $4 $-1 $27 forward single F F #
-17 loop $-1 -1 -1 $-1 $-1 $28 $11 F unknown #
-18 cone-surface $-1 -1 -1 $-1 0 22.452418298798818 0 -0 -1 -0 0 0 -4.5 1 I I 0 1 4.5 forward I I I I #
-19 coedge $-1 -1 -1 $-1 $29 $30 $31 $32 reversed $12 $-1 #
-20 coedge $-1 -1 -1 $-1 $33 $14 $34 $35 forward $8 $-1 #
-21 coedge $-1 -1 -1 $-1 $14 $33 $36 $37 reversed $8 $-1 #
-22 coedge $-1 -1 -1 $-1 $38 $38 $14 $23 forward $39 $-1 #
-23 edge $-1 -1 -1 $-1 $40 -1.5707963267948966 $41 1.5707963267948966 $22 $42 forward @7 unknown F #
-24 integer_attrib-name_attrib-gen-attrib $-1 -1 $-1 $-1 $16 2 1 2 1 1 1 1 1 1 1 1 1 1 1 0 1 1 1 @19 Cut-Inspection-Hole 0 #
-25 face $43 -1 -1 $-1 $44 $45 $4 $-1 $46 forward single F T 2.5959248847105072 4.98942628862196 -3.1560337539589294 0.014441100369219029 #
-26 loop $-1 -1 -1 $-1 $47 $48 $16 F unknown #
-27 spline-surface $-1 -1 -1 $-1 forward { exactsur full nurbs 3 1 both open open none none 2 2 
	0 3 1 3 
	0 1 1 1 
	-4.4864509822436958 9.4065023999492716 0.34893779377501033 1 
	-3.8840924681717208 7.3312906294469702 8.0937335577545593 0.38502782130000829 
	3.8840924681715565 7.3312906294469702 8.0937335577546392 0.38502782130000829 
	4.4864509822436887 9.4065023999492734 0.34893779377510137 1 
	-7.8765205473846596 17.745483280383155 -3.6000000000000547 1 
	-2.6255068491281306 17.745483280383127 -3.6000000000000081 1 
	2.6255068491283979 17.745483280383095 -3.5999999999999623 1 
	7.8765205473849269 17.745483280383063 -3.5999999999999157 1 
	0 
	0 
	0 
	0 
	0 
	0 
	0 
	F 1 F 0 F 1 F 0 } I I I I #
-28 coedge $-1 -1 -1 $-1 $49 $50 $51 $52 reversed $17 $-1 #
-29 coedge $-1 -1 -1 $-1 $53 $19 $54 $55 forward $12 $-1 #
-30 coedge $-1 -1 -1 $-1 $19 $53 $56 $57 reversed $12 $-1 #
-31 coedge $-1 -1 -1 $-1 $58 $58 $19 $32 forward $59 $-1 #
-32 edge $-1 -1 -1 $-1 $60 -3.1415926535897931 $61 0 $31 $62 forward @7 unknown F #
-33 coedge $-1 -1 -1 $-1 $21 $20 $63 $64 reversed $8 $-1 #
-34 coedge $-1 -1 -1 $-1 $65 $66 $20 $35 reversed $67 $-1 #
-35 edge $-1 -1 -1 $-1 $40 0.0027037335577546127 $68 0.0045037335577545684 $20 $69 forward @7 unknown F #
-36 coedge $-1 -1 -1 $-1 $66 $65 $21 $37 forward $67 $-1 #
-37 edge $-1 -1 -1 $-1 $41 0.0027037335577546127 $70 0.0045037335577546586 $36 $71 forward @7 unknown F #
-38 coedge $-1 -1 -1 $-1 $22 $22 $65 $72 forward $39 $-1 #
-39 loop $-1 -1 -1 $-1 $73 $38 $74 F unknown #
-40 vertex $-1 -1 -1 $-1 $35 $75 #
-41 vertex $-1 -1 -1 $-1 $23 $76 #
-42 ellipse-curve $-1 -1 -1 $-1 0 27.167433717357728 -5.4000000000000243 5.4556447975393507e-017 -2.7490899978555434e-015 1 0 -5.2499999999999973 -1.474514954580286e-014 1 I I #
-43 integer_attrib-name_attrib-gen-attrib $-1 -1 $-1 $-1 $25 2 1 2 1 1 1 1 1 1 1 1 1 1 1 0 1 1 1 @19 Cut-Inspection-Hole 0 #
-44 face $77 -1 -1 $-1 $78 $79 $4 $-1 $80 reversed single F F #
-45 loop $-1 -1 -1 $-1 $-1 $81 $25 F unknown #
-46 cone-surface $-1 -1 -1 $-1 0 22.452418298798818 0 -0 -1 -0 0 0 -4.5 1 I I 0 1 4.5 forward I I I I #
-47 loop $-1 -1 -1 $-1 $-1 $82 $16 F unknown #
-48 coedge $-1 -1 -1 $-1 $51 $83 $84 $85 forward $26 $86 #
-49 coedge $-1 -1 -1 $-1 $87 $28 $81 $88 forward $17 $-1 #
-50 coedge $-1 -1 -1 $-1 $28 $89 $90 $91 reversed $17 $-1 #
-51 coedge $-1 -1 -1 $-1 $92 $48 $28 $52 forward $26 $93 #
-52 edge $-1 -1 -1 $-1 $94 1.1038777060308259e-014 $95 1.4931766777150468 $51 $96 forward @7 unknown F #
-53 coedge $-1 -1 -1 $-1 $30 $29 $97 $98 forward $12 $-1 #
-54 coedge $-1 -1 -1 $-1 $99 $100 $29 $55 reversed $101 $-1 #
-55 edge $-1 -1 -1 $-1 $60 -0.0082942286340599424 $102 -0 $29 $103 forward @7 unknown F #
-56 coedge $-1 -1 -1 $-1 $100 $99 $30 $57 forward $101 $-1 #
-57 edge $-1 -1 -1 $-1 $61 -0.0082942286340599424 $104 -0 $56 $105 forward @7 unknown F #
-58 coedge $-1 -1 -1 $-1 $31 $31 $99 $106 forward $59 $-1 #
-59 loop $-1 -1 -1 $-1 $-1 $58 $107 F unknown #
-60 vertex $-1 -1 -1 $-1 $55 $108 #
-61 vertex $-1 -1 -1 $-1 $32 $109 #
-62 ellipse-curve $-1 -1 -1 $-1 0 8.2942286340599427 0 -0 -1 -0 0 0 -3.3500000000000005 1 I I #
-63 coedge $-1 -1 -1 $-1 $110 $110 $33 $64 forward $111 $-1 #
-64 edge $-1 -1 -1 $-1 $70 -3.1415926535897931 $68 1.6067109599325579e-031 $63 $112 forward @7 unknown F #
-65 coedge $-1 -1 -1 $-1 $36 $34 $38 $72 reversed $67 $-1 #
-66 coedge $-1 -1 -1 $-1 $34 $36 $110 $113 reversed $67 $-1 #
-67 loop $-1 -1 -1 $-1 $-1 $34 $114 F unknown #
-68 vertex $-1 -1 -1 $-1 $35 $115 #
-69 straight-curve $-1 -1 -1 $-1 -5.2499999999999982 27.167433717357728 -8.1037335577546372 0 0 1000 I I #
-70 vertex $-1 -1 -1 $-1 $113 $116 #
-71 straight-curve $-1 -1 -1 $-1 5.2499999999999982 27.167433717357728 -8.1037335577546372 0 0 1000 I I #
-72 edge $-1 -1 -1 $-1 $41 1.5707963267948966 $40 4.7123889803846897 $38 $117 forward @7 unknown F #
-73 loop $-1 -1 -1 $-1 $-1 $118 $74 F unknown #
-74 face $119 -1 -1 $-1 $114 $39 $4 $-1 $120 reversed single F F #
-75 point $-1 -1 -1 $-1 -5.2499999999999982 27.167433717357728 -5.4000000000000243 #
-76 point $-1 -1 -1 $-1 5.2499999999999982 27.167433717357728 -5.4000000000000243 #
-77 integer_attrib-name_attrib-gen-attrib $-1 -1 $-1 $-1 $44 2 1 2 1 1 1 1 1 1 1 1 1 1 1 0 1 1 1 @19 Cut-Inspection-Hole 0 #
-78 face $121 -1 -1 $-1 $107 $101 $4 $-1 $122 reversed single F T -2.4758891444955049 0 0 3.1415926535897931 #
-79 loop $-1 -1 -1 $-1 $123 $124 $44 F unknown #
-80 plane-surface $-1 -1 -1 $-1 0 0 0 0 1 0 0 0 1000 forward_v I I I I #
-81 coedge $-1 -1 -1 $-1 $84 $125 $49 $88 reversed $45 $-1 #
-82 tcoedge-coedge $-1 -1 -1 $-1 $126 $127 $128 $129 forward $47 $130 2.0985753852672574e-017 0.0054110699866096318 F #
-83 coedge $-1 -1 -1 $-1 $48 $131 $132 $133 forward $26 $134 #
-84 coedge $-1 -1 -1 $-1 $135 $81 $48 $85 reversed $45 $-1 #
-85 edge $-1 -1 -1 $-1 $136 4.7900086294645403 $94 6.2831853071795969 $48 $137 forward @7 unknown F #
-86 pcurve $-1 -1 -1 $-1 0 forward { exppc nubs 2 open 7 
	4.7900086294645403 2 5.0388714090837166 2 5.2877341887028928 2 5.536596968322069 2 5.7854597479412444 2 
	6.0343225275604206 2 6.2831853071795969 2 
	0 0 
	0.056668323857102729 0 
	0.10706522033363462 0 
	0.15747144461670295 3.6513716282982728e-019 
	0.20259153033496388 6.9198211739902793e-019 
	0.24771868726963003 3.2784819659498573e-019 
	0.28834895040419534 0 
	0.32898465259382992 0 
	0.36576309292522824 0 
	0.40254577200307029 0 
	0.43599504444464077 0 
	0.46944765957417911 8.0858495740782932e-018 
	0.50000000000000278 1.5470672191461842e-017 
	0.001 
	1.3471902232178867e-006 
	spline forward { ref 0 } I I I I 
	} 0 0 #
-87 coedge $-1 -1 -1 $-1 $138 $49 $139 $140 forward $17 $-1 #
-88 edge $-1 -1 -1 $-1 $94 0.014158189664738875 $141 0.022452418298798817 $49 $142 forward @7 unknown F #
-89 coedge $-1 -1 -1 $-1 $50 $138 $143 $144 reversed $17 $-1 #
-90 coedge $-1 -1 -1 $-1 $145 $146 $50 $91 forward $147 $148 #
-91 edge $-1 -1 -1 $-1 $95 1.4931766777150473 $149 1.6484159758747468 $90 $150 forward @7 unknown F #
-92 coedge $-1 -1 -1 $-1 $131 $51 $146 $151 forward $26 $152 #
-93 pcurve $-1 -1 -1 $-1 0 forward { exppc nubs 2 open 7 
	1.1038777060308259e-014 2 0.24886277961918365 2 0.49772555923835632 2 0.74658833885752895 2 0.99545111847670154 2 
	1.2443138980958741 2 1.4931766777150468 2 
	0.50000000000000278 1.5470672191461842e-017 
	0.53055234042582611 4.3871873035141397e-017 
	0.56400495555536401 7.4969145054187208e-017 
	0.59745422799693415 3.9263696132751668e-017 
	0.63423690707477576 0 
	0.67101534740617375 0 
	0.71165104959580783 0 
	0.7522813127303728 0 
	0.79740846966503842 0 
	0.84252855538329863 2.3105153989809785e-017 
	0.89293477966636614 4.8917240903328881e-017 
	0.94333167614289759 2.8635273575434328e-017 
	0.99999999999999978 5.8294031081622541e-018 
	0.001 
	1.3471898752115408e-006 
	spline forward { ref 0 } I I I I 
	} 0 0 #
-94 vertex $-1 -1 -1 $-1 $88 $153 #
-95 vertex $-1 -1 -1 $-1 $52 $154 #
-96 intcurve-curve $-1 -1 -1 $-1 forward { exactcur full nurbs 3 open 2 
	1.1038777060308259e-014 3 1.4931766777150468 3 
	5.5109105961630886e-016 8.2942286340599427 4.4999999999999991 1 
	2.4765788299291365 8.294228634059948 4.5000000000000009 0.82267341774407954 
	4.2944127704602213 8.7449031228258498 2.8180599102505495 0.82267341774407954 
	4.4864509822436887 9.4065023999492716 0.34893779377510292 1 
	0 
	null_surface 
	null_surface 
	nullbs 
	nullbs 
	-1 
	-1 
	I I 
	0 
	0 
	0 
	
	-1 
	none F F 1 F 0 } I I #
-97 coedge $-1 -1 -1 $-1 $124 $124 $53 $98 reversed $79 $-1 #
-98 edge $-1 -1 -1 $-1 $102 -3.1415926535897931 $104 0 $53 $155 forward @7 unknown F #
-99 coedge $-1 -1 -1 $-1 $56 $54 $58 $106 reversed $101 $-1 #
-100 coedge $-1 -1 -1 $-1 $54 $56 $124 $156 forward $101 $-1 #
-101 loop $-1 -1 -1 $-1 $-1 $54 $78 F unknown #
-102 vertex $-1 -1 -1 $-1 $55 $157 #
-103 straight-curve $-1 -1 -1 $-1 4.1025667771436338e-016 0 3.3500000000000005 -0 -1000 -0 I I #
-104 vertex $-1 -1 -1 $-1 $98 $158 #
-105 straight-curve $-1 -1 -1 $-1 0 0 -3.3500000000000005 -0 -1000 -0 I I #
-106 edge $-1 -1 -1 $-1 $61 0 $60 3.1415926535897931 $58 $159 forward @7 unknown F #
-107 face $160 -1 -1 $-1 $161 $59 $4 $-1 $162 reversed single F F #
-108 point $-1 -1 -1 $-1 4.1025667771436338e-016 8.2942286340599427 3.3500000000000005 #
-109 point $-1 -1 -1 $-1 0 8.2942286340599427 -3.3500000000000005 #
-110 coedge $-1 -1 -1 $-1 $63 $63 $66 $113 forward $111 $-1 #
-111 loop $-1 -1 -1 $-1 $163 $63 $164 F unknown #
-112 ellipse-curve $-1 -1 -1 $-1 0 27.167433717357728 -3.6000000000000232 8.6994729320974869e-015 -4.1208309285242907e-015 -1 -5.2499999999999982 0 -4.5536491244391186e-014 1 I I #
-113 edge $-1 -1 -1 $-1 $68 1.6067109599325579e-031 $70 3.1415926535897931 $110 $165 forward @7 unknown F #
-114 face $166 -1 -1 $-1 $167 $67 $4 $-1 $168 reversed single F T 0.51499686814373591 0.85785401100088787 0 3.1415926535897931 #
-115 point $-1 -1 -1 $-1 -5.2499999999999982 27.167433717357728 -3.6000000000000689 #
-116 point $-1 -1 -1 $-1 5.2499999999999982 27.167433717357728 -3.5999999999999779 #
-117 ellipse-curve $-1 -1 -1 $-1 0 27.167433717357728 -5.4000000000000243 5.4556447975393507e-017 -2.7490899978555434e-015 1 0 -5.2499999999999973 -1.474514954580286e-014 1 I I #
-118 coedge $-1 -1 -1 $-1 $169 $170 $171 $172 forward $73 $-1 #
-119 integer_attrib-name_attrib-gen-attrib $-1 -1 $-1 $-1 $74 2 1 2 1 1 1 1 1 1 1 1 1 1 1 0 1 1 1 @19 Cut-Inspection-Hole 0 #
-120 plane-surface $-1 -1 -1 $-1 -7.94921379760288 38 -5.3999999999999941 5.4556447975393507e-017 -2.7490899978555434e-015 1 0 -1000 -2.7490899978555435e-012 forward_v I I I I #
-121 integer_attrib-name_attrib-gen-attrib $-1 -1 $-1 $-1 $78 2 1 2 1 1 1 1 1 1 1 1 1 1 1 0 1 1 1 @19 Cut-Inspection-Hole 0 #
-122 cone-surface $-1 -1 -1 $-1 0 0 0 -0 -1 -0 0 0 -3.3500000000000005 1 I I 0 1 3.3500000000000005 forward I I I I #
-123 loop $-1 -1 -1 $-1 $-1 $173 $44 F unknown #
-124 coedge $-1 -1 -1 $-1 $97 $97 $100 $156 reversed $79 $-1 #
-125 coedge $-1 -1 -1 $-1 $81 $174 $173 $175 forward $45 $-1 #
-126 tcoedge-coedge $-1 -1 -1 $-1 $127 $82 $176 $177 forward $47 $178 1.6342137697636436e-020 0.0054110690471479688 F #
-127 tcoedge-coedge $-1 -1 -1 $-1 $82 $126 $179 $180 reversed $47 $181 -0.003948735118694072 -0.0015305151737455105 F #
-128 tcoedge-coedge $-1 -1 -1 $-1 $182 $183 $82 $129 reversed $184 $185 -0.0054110699866096318 -2.0985753852672574e-017 F #
-129 tedge-edge $-1 -1 -1 $-1 $186 2.0985753852672574e-017 $187 0.0054110699866096318 $82 $188 forward @7 unknown F 0.00013218646100942414 #
-130 pcurve $-1 -1 -1 $-1 0 forward { exppc nubs 5 open 11 
	2.0985753852672574e-017 5 0.00054110699866098211 1 0.0010822139973219432 1 0.0016233209959829042 1 0.0021644279946438651 1 
	0.0027055349933048263 1 0.0032466419919657871 1 0.0037877489906267482 1 0.0043288559892877094 2 0.0048699629879486702 3 
	0.0054110699866096318 5 
	0.57560270450322037 0.39769274885405403 
	0.57404110165491895 0.38942995932212077 
	0.5709228981276091 0.37313119017213847 
	0.56626098968913663 0.34934635238051992 
	0.56007709662380245 0.31889307348209239 
	0.55240179054866578 0.28276795887461836 
	0.54478069660701367 0.24843498387730129 
	0.53721197778343754 0.21575370173165972 
	0.52969241326880445 0.18459225218465447 
	0.52371245084582774 0.1607802502820751 
	0.51775579958139717 0.13773650102333038 
	0.51330367664800647 0.12099761998030807 
	0.51034142242837011 0.11006594605985952 
	0.50738180389076859 0.099244741810732506 
	0.50442687478813941 0.088637834857092854 
	0.50295043607994305 0.083386309515982054 
	0.50147486671145203 0.078185115973060548 
	0.50000000000000133 0.07303270178950963 
	1.8910141650858985e-006 
	9.4657588565872458e-008 
	spline forward { ref 0 } I I I I 
	} 0 0 #
-131 coedge $-1 -1 -1 $-1 $83 $92 $189 $190 reversed $26 $191 #
-132 coedge $-1 -1 -1 $-1 $192 $193 $83 $133 reversed $194 $195 #
-133 edge $-1 -1 -1 $-1 $196 -0.0049149080225331255 $136 0.0049149080225331246 $83 $197 forward @7 unknown F #
-134 pcurve $-1 -1 -1 $-1 0 forward { exppc nubs 1 open 2 
	-0.0049149080225331255 1 0.0049149080225331246 1 
	0 1 
	7.0562719954204296e-018 1.943134369387368e-018 
	0.001 
	-1 
	spline forward { ref 0 } I I I I 
	} 0 0 #
-135 coedge $-1 -1 -1 $-1 $198 $84 $193 $199 reversed $45 $-1 #
-136 vertex $-1 -1 -1 $-1 $85 $200 #
-137 intcurve-curve $-1 -1 -1 $-1 forward { exactcur full nurbs 3 open 2 
	4.7900086294645403 3 6.2831853071795969 3 
	-4.4864509822436958 9.4065023999492716 0.34893779377500989 1 
	-4.2944127704602773 8.7449031228258391 2.8180599102504993 0.82267341774407488 
	-2.4765788299291787 8.2942286340599338 4.5 0.82267341774407488 
	5.5109105961630886e-016 8.2942286340599427 4.4999999999999991 1 
	0 
	null_surface 
	null_surface 
	nullbs 
	nullbs 
	-1 
	-1 
	I I 
	0 
	0 
	0 
	
	-1 
	none F F 1 F 0 } I I #
-138 coedge $-1 -1 -1 $-1 $89 $87 $174 $201 reversed $17 $-1 #
-139 coedge $-1 -1 -1 $-1 $173 $173 $87 $140 reversed $123 $-1 #
-140 edge $-1 -1 -1 $-1 $141 1.224646799147353e-016 $202 3.1415926535897931 $87 $203 forward @7 unknown F #
-141 vertex $-1 -1 -1 $-1 $88 $204 #
-142 straight-curve $-1 -1 -1 $-1 5.5109105961630886e-016 22.452418298798818 4.5 -0 -1000 -0 I I #
-143 coedge $-1 -1 -1 $-1 $205 $206 $89 $144 forward $207 $208 #
-144 edge $-1 -1 -1 $-1 $149 1.648415975874747 $209 3.1415926535898038 $143 $210 forward @7 unknown F #
-145 coedge $-1 -1 -1 $-1 $211 $90 $206 $212 forward $147 $213 #
-146 coedge $-1 -1 -1 $-1 $90 $211 $92 $151 reversed $147 $214 #
-147 loop $-1 -1 -1 $-1 $-1 $90 $215 F unknown #
-148 pcurve $-1 -1 -1 $-1 0 forward { exppc nubs 1 open 2 
	1.4931766777150473 1 1.6484159758747468 1 
	0 3.6919553018360943e-017 
	1 0 
	0.001 
	-1 
	spline forward { exactsur full nurbs 3 1 both open open none none 2 2 
	0 3 1 3 
	0 1 1 1 
	4.4864509822436887 9.4065023999492716 0.34893779377510242 1 
	4.5045254229611462 9.4687714494370017 0.11654653734787464 0.99799273811017664 
	4.504525422961148 9.5312285505629895 -0.11654653734778078 0.99799273811017664 
	4.4864509822436958 9.5934976000507195 -0.34893779377500894 1 
	7.8765205473849251 17.745483280383063 -3.5999999999999148 1 
	8.0415877536261711 17.034148301435934 -4.1968809184779552 0.98971004561540787 
	8.0415877536261764 16.31166179266063 -4.8031190815218787 0.98971004561540787 
	7.876520547384934 15.600326813713501 -5.3999999999999222 1 
	0 
	0 
	0 
	0 
	0 
	0 
	0 
	F 1 F 0 F 1 F 0 } I I I I 
	} 0 0 #
-149 vertex $-1 -1 -1 $-1 $144 $216 #
-150 intcurve-curve $-1 -1 -1 $-1 forward { exactcur full nurbs 3 open 2 
	1.4931766777150473 3 1.6484159758747468 3 
	4.4864509822436887 9.4065023999492716 0.34893779377510292 1 
	4.504525422961148 9.4687714494370017 0.11654653734787507 0.99799273811017675 
	4.504525422961148 9.5312285505629895 -0.11654653734778028 0.99799273811017675 
	4.4864509822436958 9.5934976000507195 -0.34893779377500894 1 
	0 
	null_surface 
	null_surface 
	nullbs 
	nullbs 
	-1 
	-1 
	I I 
	0 
	0 
	0 
	
	-1 
	none F F 1 F 0 } I I #
-151 edge $-1 -1 -1 $-1 $95 -0.0049149080225331246 $217 0.0049149080225331212 $92 $218 forward @7 unknown F #
-152 pcurve $-1 -1 -1 $-1 0 forward { exppc nubs 1 open 2 
	-0.0049149080225331246 1 0.0049149080225331212 1 
	1 0 
	1 0.99999999999999967 
	0.001 
	-1 
	spline forward { ref 0 } I I I I 
	} 0 0 #
-153 point $-1 -1 -1 $-1 5.5109105961630886e-016 8.2942286340599427 4.4999999999999991 #
-154 point $-1 -1 -1 $-1 4.4864509822436887 9.4065023999492716 0.34893779377510292 #
-155 ellipse-curve $-1 -1 -1 $-1 0 0 0 -0 -1 -0 0 0 -3.3500000000000005 1 I I #
-156 edge $-1 -1 -1 $-1 $104 0 $102 3.1415926535897931 $100 $219 forward @7 unknown F #
-157 point $-1 -1 -1 $-1 4.1025667771436338e-016 0 3.3500000000000005 #
-158 point $-1 -1 -1 $-1 0 0 -3.3500000000000005 #
-159 ellipse-curve $-1 -1 -1 $-1 0 8.2942286340599427 0 -0 -1 -0 0 0 -3.3500000000000005 1 I I #
-160 integer_attrib-name_attrib-gen-attrib $-1 -1 $-1 $-1 $107 2 1 2 1 1 1 1 1 1 1 1 1 1 1 0 1 1 1 @19 Cut-Inspection-Hole 0 #
-161 face $220 -1 -1 $-1 $221 $207 $4 $-1 $222 forward single F F #
-162 plane-surface $-1 -1 -1 $-1 3.3500000000000005 8.2942286340599427 0 0 1 0 0 0 1000 forward_v I I I I #
-163 loop $-1 -1 -1 $-1 $-1 $223 $164 F unknown #
-164 face $224 -1 -1 $-1 $225 $111 $4 $-1 $226 reversed single F F #
-165 ellipse-curve $-1 -1 -1 $-1 0 27.167433717357728 -3.6000000000000232 8.6994729320974869e-015 -4.1208309285242907e-015 -1 -5.2499999999999982 0 -4.5536491244391186e-014 1 I I #
-166 integer_attrib-name_attrib-gen-attrib $-1 -1 $-1 $-1 $114 2 1 2 1 1 1 1 1 1 1 1 1 1 1 0 1 1 1 @19 Cut-Inspection-Hole 0 #
-167 face $227 -1 -1 $-1 $228 $229 $4 $-1 $230 forward single F F #
-168 cone-surface $-1 -1 -1 $-1 0 27.167433717357728 -8.1037335577546372 0 0 1 5.2499999999999982 0 0 1 I I 0 1 5.2499999999999982 forward I I I I #
-169 coedge $-1 -1 -1 $-1 $231 $118 $232 $233 forward $73 $-1 #
-170 coedge $-1 -1 -1 $-1 $118 $231 $234 $235 forward $73 $-1 #
-171 coedge $-1 -1 -1 $-1 $236 $237 $118 $172 reversed $238 $239 #
-172 edge $-1 -1 -1 $-1 $240 1.7821122333547758e-018 $241 0.021009216450639061 $118 $242 forward @7 unknown F #
-173 coedge $-1 -1 -1 $-1 $139 $139 $125 $175 reversed $123 $-1 #
-174 coedge $-1 -1 -1 $-1 $125 $198 $138 $201 forward $45 $-1 #
-175 edge $-1 -1 -1 $-1 $202 -3.1415926535897931 $141 1.224646799147353e-016 $125 $243 forward @7 unknown F #
-176 tcoedge-coedge $-1 -1 -1 $-1 $244 $245 $126 $177 reversed $246 $247 -0.0054110690471479688 -1.6342137697636436e-020 F #
-177 tedge-edge $-1 -1 -1 $-1 $187 1.6342137697636436e-020 $248 0.0054110690471479688 $126 $249 forward @7 unknown F 0.00013220357858914421 #
-178 pcurve $-1 -1 -1 $-1 0 forward { exppc nubs 5 open 11 
	1.6342137697636436e-020 5 0.00054110690471479686 1 0.0010822138094295937 1 0.0016233207141443905 1 0.0021644276188591874 1 
	0.0027055345235739844 1 0.0032466414282887809 1 0.0037877483330035779 1 0.0043288552377183749 2 0.0048699621424331714 1 
	0.0054110690471479688 5 
	0.50000000000000133 0.07303270178950963 
	0.49852513646878438 0.078185104862983898 
	0.49557400386796291 0.0885874701325884 
	0.49114208823207078 0.10449301015727194 
	0.48521867773522348 0.12634269372743875 
	0.47778257344740338 0.15482705654895898 
	0.47030763198618897 0.18459209382787034 
	0.46278806833552893 0.21575349734133853 
	0.45521935103486455 0.24843478009962108 
	0.44912246944505957 0.27590117083184312 
	0.44299306542254741 0.30444284784446807 
	0.4368309819446759 0.33411958107116824 
	0.43218506236531296 0.35727453015201133 
	0.42907711018286776 0.37313113397569658 
	0.42595890258270147 0.38942993689983757 
	0.4243972954967633 0.39769274885404932 
	2.8534268881914627e-006 
	1.4023050081036494e-007 
	spline forward { ref 0 } I I I I 
	} 0 0 #
-179 tcoedge-coedge $-1 -1 -1 $-1 $250 $251 $127 $180 forward $252 $253 0.0015305151737455105 0.003948735118694072 F #
-180 tedge-edge $-1 -1 -1 $-1 $186 0.0015305151737455105 $248 0.003948735118694072 $179 $254 forward @7 unknown F 5.6398591913750657e-005 #
-181 pcurve $-1 -1 -1 $-1 0 reversed { exppc nubs 5 open 11 
	0.0015305151737455105 5 0.0017992062787397949 1 0.0020678973837340796 1 0.0023365884887283643 1 0.0026052795937226486 3 
	0.0027396251462197914 4 0.0028739706987169333 3 0.003142661803711218 1 0.0034113529087055026 1 0.0036800440136997873 1 
	0.003948735118694072 5 
	0.57560270450322037 0.39769274885405403 
	0.57221211745040546 0.39812165784124609 
	0.56544328674926969 0.39892906126868899 
	0.55532284102325025 0.39999051236774502 
	0.54187831492748262 0.40111228168738805 
	0.52846932837639893 0.40185235230334559 
	0.51841628118444294 0.40219708929186593 
	0.51003489851892625 0.40236879768996664 
	0.50500301602818831 0.40242006180615919 
	0.50332530906939155 0.40243141233927521 
	0.50164711577446242 0.40243703808514297 
	0.49828960920085558 0.40243686313939109 
	0.49661159312277298 0.4024310734342274 
	0.49493422942624204 0.40241956992680533 
	0.48990384159950318 0.40236787975116173 
	0.48152710942493948 0.40219562483396554 
	0.47148256615796202 0.40185048947968383 
	0.45808867426387456 0.40111038219924888 
	0.44466005927348573 0.39998913526256541 
	0.43454961099006451 0.39892831476314805 
	0.42778584484196241 0.39812140007139346 
	0.4243972954967633 0.39769274885404932 
	1.1705117330589904e-007 
	7.5897313745346386e-009 
	spline forward { ref 0 } I I I I 
	} 0 0 #
-182 coedge $-1 -1 -1 $-1 $183 $128 $251 $255 reversed $184 $-1 #
-183 coedge $-1 -1 -1 $-1 $128 $182 $244 $256 reversed $184 $-1 #
-184 loop $-1 -1 -1 $-1 $-1 $182 $257 F unknown #
-185 pcurve $-1 -1 -1 $-1 0 forward { exppc nubs 3 open 2 
	-0.0054110699866096318 3 -2.0985753852672574e-017 3 
	0.0091938539902697274 -0.0046371146727068237 
	0.0077989435746371599 -0.0057806903439212975 
	0.0064229393838354295 -0.006946925351847261 
	0.0050390697713460532 -0.0081037335577546377 
	0 
	0 
	plane 2.6796161035172861 18.294692077166172 8.1037335577546372 -0.95658383159815163 0.29145732642189504 0 -291.45732642189506 -956.58383159815162 0 forward_v I I I I 
	} 0 0 #
-186 tvertex-vertex $-1 -1 -1 $-1 $255 $258 1.5927149592148201e-013 #
-187 tvertex-vertex $-1 -1 -1 $-1 $177 $259 1.0048165734514923e-015 #
-188 intcurve-curve $-1 -1 -1 $-1 forward { exactcur full nubs 3 open 2 
	2.0985753852672574e-017 3 0.0054110699866096318 3 
	1.2109423003072228 13.474399407601586 9.6352864940200699e-017 
	0.80760336293471824 12.150612111254203 1.1568082059073772 
	0.40655686033832383 10.83434875012197 2.3230432138333401 
	0 9.5 3.4666188850478141 
	0 
	null_surface 
	null_surface 
	nullbs 
	nullbs 
	-1 
	-1 
	I I 
	0 
	0 
	0 
	
	-1 
	none F F 1 F 0 } I I #
-189 coedge $-1 -1 -1 $-1 $223 $260 $131 $190 forward $163 $-1 #
-190 edge $-1 -1 -1 $-1 $196 -0.015753041094769587 $217 -1.7763568394002309e-018 $189 $261 forward @7 unknown F #
-191 pcurve $-1 -1 -1 $-1 0 forward { exppc nubs 1 open 2 
	1.7763568394002309e-018 1 0.015753041094769587 1 
	1 1 
	0 0.99999999999999967 
	0.001 
	-1 
	spline forward { ref 0 } I I I I 
	} 0 0 #
-192 coedge $-1 -1 -1 $-1 $262 $132 $236 $263 reversed $194 $264 #
-193 coedge $-1 -1 -1 $-1 $132 $262 $135 $199 forward $194 $265 #
-194 loop $-1 -1 -1 $-1 $-1 $193 $221 F unknown #
-195 pcurve $-1 -1 -1 $-1 0 forward { exppc nubs 1 open 2 
	-0.0049149080225331246 1 0.0049149080225331255 1 
	1 7.7725374775494225e-018 
	0.99999999999999933 1 
	0.001 
	-1 
	spline forward { exactsur full nurbs 3 1 both open open none none 2 2 
	0 3 1 3 
	0 1 1 1 
	-4.4864509822436887 9.5934976000507195 -0.34893779377510104 1 
	-4.5045254229611462 9.5312285505629877 -0.11654653734787329 0.99799273811017664 
	-4.504525422961148 9.4687714494370017 0.11654653734778213 0.99799273811017664 
	-4.4864509822436958 9.4065023999492716 0.34893779377501033 1 
	-7.8765205473846613 15.600326813713597 -5.4000000000000572 1 
	-8.0415877536259099 16.311661792660725 -4.8031190815220182 0.98971004561540721 
	-8.0415877536259099 17.034148301436026 -4.1968809184780955 0.98971004561540721 
	-7.8765205473846596 17.745483280383155 -3.6000000000000538 1 
	0 
	0 
	0 
	0 
	0 
	0 
	0 
	F 1 F 0 F 1 F 0 } I I I I 
	} 0 0 #
-196 vertex $-1 -1 -1 $-1 $190 $266 #
-197 straight-curve $-1 -1 -1 $-1 -6.1814857648141777 13.575992840166213 -1.6255311031125221 344.87619601411535 -848.33539531183362 401.73058943021664 I I #
-198 coedge $-1 -1 -1 $-1 $174 $135 $205 $267 reversed $45 $-1 #
-199 edge $-1 -1 -1 $-1 $268 4.6347693313048408 $136 4.7900086294645403 $193 $269 forward @7 unknown F #
-200 point $-1 -1 -1 $-1 -4.4864509822436958 9.4065023999492716 0.34893779377500989 #
-201 edge $-1 -1 -1 $-1 $209 0.011746646932858767 $202 0.022452418298798817 $174 $270 forward @7 unknown F #
-202 vertex $-1 -1 -1 $-1 $140 $271 #
-203 ellipse-curve $-1 -1 -1 $-1 0 0 0 0 1 0 0 0 4.5 1 I I #
-204 point $-1 -1 -1 $-1 5.5109105961630886e-016 0 4.5 #
-205 coedge $-1 -1 -1 $-1 $272 $143 $198 $267 forward $207 $273 #
-206 coedge $-1 -1 -1 $-1 $143 $234 $145 $212 reversed $207 $274 #
-207 loop $-1 -1 -1 $-1 $-1 $143 $161 F unknown #
-208 pcurve $-1 -1 -1 $-1 0 forward { exppc nubs 2 open 7 
	1.648415975874747 2 1.897278755493923 2 2.1461415351130992 2 2.3950043147322755 2 2.6438670943514513 2 
	2.8927298739706275 2 3.1415926535898038 2 
	0 0 
	0.056668323857102604 5.4080959824999558e-016 
	0.1070652203336344 1.0217683328906659e-015 
	0.15747144461670282 4.8261337388191653e-016 
	0.20259153033496377 0 
	0.24771868726962987 4.0051603788481682e-018 
	0.28834895040419528 7.6112089567440435e-018 
	0.32898465259382992 3.6159852108335442e-018 
	0.36576309292522824 0 
	0.40254577200307023 2.1910194248383407e-016 
	0.43599504444464071 4.1834791233582204e-016 
	0.469447659574179 1.9969559736763096e-016 
	0.50000000000000278 0 
	0.001 
	1.3471913447374306e-006 
	spline forward { exactsur full nurbs 3 1 both open open none none 2 2 
	0 3 1 3 
	0 1 1 1 
	4.4864509822436958 9.5934976000507195 -0.34893779377500894 1 
	3.8840924681717208 11.668709370553024 -8.0937335577545593 0.38502782130000829 
	-3.8840924681715556 11.668709370553021 -8.0937335577546392 0.38502782130000829 
	-4.4864509822436887 9.5934976000507195 -0.34893779377510104 1 
	7.876520547384934 15.600326813713503 -5.3999999999999222 1 
	2.6255068491284015 15.600326813713531 -5.3999999999999684 1 
	-2.6255068491281306 15.600326813713561 -5.4000000000000155 1 
	-7.8765205473846631 15.600326813713593 -5.4000000000000608 1 
	0 
	0 
	0 
	0 
	0 
	0 
	0 
	F 1 F 0 F 1 F 0 } I I I I 
	} 0 0 #
-209 vertex $-1 -1 -1 $-1 $201 $275 #
-210 intcurve-curve $-1 -1 -1 $-1 forward { exactcur full nurbs 3 open 2 
	1.648415975874747 3 3.1415926535898038 3 
	4.4864509822436958 9.5934976000507195 -0.34893779377500894 1 
	4.2944127704602773 10.255096877174152 -2.8180599102504984 0.82267341774407488 
	2.4765788299291791 10.705771365940059 -4.4999999999999982 0.82267341774407488 
	0 10.705771365940052 -4.5000000000000009 1 
	0 
	null_surface 
	null_surface 
	nullbs 
	nullbs 
	-1 
	-1 
	I I 
	0 
	0 
	0 
	
	-1 
	none F F 1 F 0 } I I #
-211 coedge $-1 -1 -1 $-1 $146 $145 $276 $277 reversed $147 $278 #
-212 edge $-1 -1 -1 $-1 $149 -0.0042745701032315293 $279 0.0042745701032315285 $145 $280 forward @7 unknown F #
-213 pcurve $-1 -1 -1 $-1 0 forward { exppc nubs 1 open 2 
	-0.0042745701032315293 1 0.0042745701032315285 1 
	0.999999999999999 1.5366145819660563e-017 
	1 1 
	0.001 
	-1 
	spline forward { ref 8 } I I I I 
	} 0 0 #
-214 pcurve $-1 -1 -1 $-1 0 forward { exppc nubs 1 open 2 
	-0.0049149080225331212 1 0.0049149080225331246 1 
	7.7889326311112791e-016 0.99999999999999989 
	0 7.5636926516772547e-016 
	0.001 
	-1 
	spline forward { ref 8 } I I I I 
	} 0 0 #
-215 face $281 -1 -1 $-1 $164 $147 $4 $-1 $282 forward single F F #
-216 point $-1 -1 -1 $-1 4.4864509822436958 9.5934976000507195 -0.34893779377500894 #
-217 vertex $-1 -1 -1 $-1 $283 $284 #
-218 straight-curve $-1 -1 -1 $-1 6.1814857648143082 13.575992840166167 -1.6255311031124071 344.87619601414332 848.33539531182453 -401.73058943021192 I I #
-219 ellipse-curve $-1 -1 -1 $-1 0 0 0 -0 -1 -0 0 0 -3.3500000000000005 1 I I #
-220 integer_attrib-name_attrib-gen-attrib $-1 -1 $-1 $-1 $161 2 1 2 1 1 1 1 1 1 1 1 1 1 1 0 1 1 1 @19 Cut-Inspection-Hole 0 #
-221 face $285 -1 -1 $-1 $215 $194 $4 $-1 $286 forward single F F #
-222 spline-surface $-1 -1 -1 $-1 forward { ref 19 } I I I I #
-223 coedge $-1 -1 -1 $-1 $287 $189 $288 $283 reversed $163 $-1 #
-224 integer_attrib-name_attrib-gen-attrib $-1 -1 $-1 $-1 $164 2 1 2 1 1 1 1 1 1 1 1 1 1 1 0 1 1 1 @19 Cut-Inspection-Hole 0 #
-225 face $289 -1 -1 $-1 $290 $238 $4 $-1 $291 forward single F F #
-226 plane-surface $-1 -1 -1 $-1 7.8765205473849251 17.745483280383063 -3.5999999999999157 8.6994729320974869e-015 -4.1208309285242907e-015 -1 -1000 0 -8.6994729320974875e-012 forward_v I I I I #
-227 integer_attrib-name_attrib-gen-attrib $-1 -1 $-1 $-1 $167 2 1 2 1 1 1 1 1 1 1 1 1 1 1 0 1 1 1 @19 Cut-Inspection-Hole 0 #
-228 face $292 -1 -1 $-1 $257 $246 $4 $-1 $293 forward single F F #
-229 loop $-1 -1 -1 $-1 $-1 $232 $167 F unknown #
-230 cone-surface $-1 -1 -1 $-1 0 14.609564798694311 -8.1037335577546372 0 0 1 23.390435201305689 0 0 1 I I 0 1 23.390435201305689 forward I I I I #
-231 coedge $-1 -1 -1 $-1 $170 $169 $294 $295 reversed $73 $-1 #
-232 coedge $-1 -1 -1 $-1 $296 $297 $169 $233 reversed $229 $-1 #
-233 edge $-1 -1 -1 $-1 $241 2.7950415530523545 $298 3.4881437541272353 $169 $299 forward @7 unknown F #
-234 coedge $-1 -1 -1 $-1 $206 $272 $170 $235 reversed $207 $300 #
-235 edge $-1 -1 -1 $-1 $279 -0.015753041094769594 $240 3.5527136788004956e-018 $170 $301 forward @7 unknown F #
-236 coedge $-1 -1 -1 $-1 $302 $171 $192 $263 forward $238 $303 #
-237 tcoedge-coedge $-1 -1 -1 $-1 $171 $302 $296 $304 reversed $238 $305 -0.0018040061769290373 -0 F #
-238 loop $-1 -1 -1 $-1 $-1 $237 $225 F unknown #
-239 pcurve $-1 -1 -1 $-1 0 forward { exppc nubs 1 open 2 
	-0.021009216450639061 1 -1.7821122333547758e-018 1 
	0 0.93792019391515058 
	8.2560059409358996e-019 4.3939018532997698e-017 
	0.001 
	-1 
	spline forward { exactsur full nurbs 3 1 both open open none none 2 2 
	0 3 1 3 
	0 1 1 1 
	-7.8765205473846613 15.600326813713593 -5.400000000000059 1 
	-8.0415877536259117 16.311661792660722 -4.8031190815220199 0.98971004561540721 
	-8.0415877536259099 17.034148301436023 -4.1968809184780973 0.98971004561540721 
	-7.8765205473846596 17.745483280383151 -3.6000000000000556 1 
	-7.94921379760288 38 -5.3999999999999977 1 
	-8.0170006841478756 38 -4.8012750513110882 0.9957678164669066 
	-8.0170006841478756 38 -4.1987249486889056 0.9957678164669066 
	-7.94921379760288 38 -3.5999999999999956 1 
	0 
	0 
	0 
	0 
	0 
	0 
	0 
	F 1 F 0 F 1 F 0 } I I I I 
	} 0 0 #
-240 vertex $-1 -1 -1 $-1 $306 $307 #
-241 tvertex-vertex $-1 -1 -1 $-1 $233 $308 1.5332336735014057e-014 #
-242 straight-curve $-1 -1 -1 $-1 -7.8765205473846613 15.600326813713593 -5.400000000000059 -3.2452646437901662 999.99473411483109 2.749252571575001e-012 I I #
-243 ellipse-curve $-1 -1 -1 $-1 0 0 0 0 1 0 0 0 4.5 1 I I #
-244 coedge $-1 -1 -1 $-1 $245 $176 $183 $256 forward $246 $-1 #
-245 coedge $-1 -1 -1 $-1 $176 $244 $250 $309 reversed $246 $-1 #
-246 loop $-1 -1 -1 $-1 $-1 $244 $228 F unknown #
-247 pcurve $-1 -1 -1 $-1 0 forward { exppc nubs 3 open 2 
	-0.0054110690471479688 3 -1.6342137697636436e-020 3 
	-0.0050390697713460601 -0.0081037335577546377 
	-0.0064229431391664982 -0.0069469222126802939 
	-0.0077989465824624422 -0.0057806878780455179 
	-0.0091938539902697274 -0.0046371146727068237 
	0 
	0 
	plane -2.6796161035172861 18.294692077166172 8.1037335577546372 0.95658383159815163 0.29145732642189504 0 -291.45732642189506 956.58383159815162 0 forward_v I I I I 
	} 0 0 #
-248 tvertex-vertex $-1 -1 -1 $-1 $180 $310 1.7763568394002505e-015 #
-249 intcurve-curve $-1 -1 -1 $-1 forward { exactcur full nubs 3 open 2 
	1.6342137697636436e-020 3 0.0054110690471479688 3 
	0 9.5 3.4666188850478141 
	-0.40655598368560791 10.834345872884938 2.3230456797091197 
	-0.80760226841596516 12.150608518965221 1.1568113450743436 
	-1.2109423003073738 13.474399407601535 0 
	0 
	null_surface 
	null_surface 
	nullbs 
	nullbs 
	-1 
	-1 
	I I 
	0 
	0 
	0 
	
	-1 
	none F F 1 F 0 } I I #
-250 coedge $-1 -1 -1 $-1 $251 $179 $245 $309 forward $252 $-1 #
-251 coedge $-1 -1 -1 $-1 $179 $250 $182 $255 forward $252 $-1 #
-252 loop $-1 -1 -1 $-1 $-1 $179 $311 F unknown #
-253 pcurve $-1 -1 -1 $-1 0 forward { exppc nubs 3 open 3 
	0.0015305151737455105 3 0.0027396251462197914 2 0.003948735118694072 3 
	0.0014686738032100631 -0.0048202926695645847 
	0.001869025875309386 -0.0047727454491912086 
	0.002273357469135815 -0.004749746812310324 
	0.0030868968600014706 -0.0047497860470790063 
	0.0034904469391639961 -0.0047727740245770214 
	0.00389055840382466 -0.004820292669564635 
	0 
	0 
	plane 2.6796161035172861 18.294692077166172 0 -0 -0 1 -1000 0 0 reverse_v I I I I 
	} 0 0 #
-254 intcurve-curve $-1 -1 -1 $-1 forward { exactcur full nubs 3 open 3 
	0.0015305151737455105 3 0.0027396251462197914 2 0.003948735118694072 3 
	1.2109423003072228 13.474399407601586 9.6352864940200699e-017 
	0.81059022820789983 13.521946627974962 -4.4644947375007029e-016 
	0.40625863438147097 13.544945264855846 -4.4901533334716601e-016 
	-0.40728075648418482 13.544906030087164 -4.4901533334716591e-016 
	-0.81083083564670988 13.521918052589148 4.464494737500699e-016 
	-1.2109423003073738 13.474399407601535 0 
	0 
	null_surface 
	null_surface 
	nullbs 
	nullbs 
	-1 
	-1 
	I I 
	0 
	1 0.0027396251462197914 
	0 
	
	-1 
	none F F 1 F 0 } I I #
-255 edge $-1 -1 -1 $-1 $312 -0.0091938539902697257 $186 -0.0050390697713460558 $251 $313 forward @7 unknown F #
-256 edge $-1 -1 -1 $-1 $187 0.0046371146727068229 $312 0.0081037335577546377 $244 $314 forward @7 unknown F #
-257 face $315 -1 -1 $-1 $311 $184 $4 $-1 $316 forward single F F #
-258 point $-1 -1 -1 $-1 1.2109423003072228 13.474399407601586 9.6352864940200699e-017 #
-259 point $-1 -1 -1 $-1 0 9.5 3.4666188850478141 #
-260 coedge $-1 -1 -1 $-1 $189 $287 $302 $317 reversed $163 $-1 #
-261 straight-curve $-1 -1 -1 $-1 7.8765205473849269 17.745483280383063 -3.5999999999999157 1000 -5.726235347709754e-012 8.8095928426303901e-012 I I #
-262 coedge $-1 -1 -1 $-1 $193 $192 $272 $306 forward $194 $318 #
-263 edge $-1 -1 -1 $-1 $240 1.3948713313702736 $196 1.7467213222195208 $236 $319 forward @7 unknown F #
-264 pcurve $-1 -1 -1 $-1 0 forward { exppc nubs 2 open 7 
	-1.7467213222195208 2 -1.6880796570779797 2 -1.6294379919364386 2 -1.5707963267948972 2 -1.5121546616533561 2 
	-1.453512996511815 2 -1.3948713313702736 2 
	1 1 
	0.91624744975597028 0.99999999999999978 
	0.83285481117753779 0.99999999999999989 
	0.74946204870714817 0.99999999999999956 
	0.66628424403575459 0.99999999999999956 
	0.58310637779033336 0.99999999999999978 
	0.5 1 
	0.41689362220966719 1 
	0.33371575596424619 1 
	0.25053795129285178 1 
	0.16714518882246193 1 
	0.083752550244029916 0.99999999999999978 
	0 0.99999999999999989 
	0.001 
	0.001 
	spline forward { ref 17 } I I I I 
	} 0 0 #
-265 pcurve $-1 -1 -1 $-1 0 forward { exppc nubs 1 open 2 
	4.6347693313048408 1 4.7900086294645403 1 
	0 1.5324643575673734e-017 
	0.99999999999999922 2.6042189090735951e-018 
	0.001 
	-1 
	spline forward { ref 17 } I I I I 
	} 0 0 #
-266 point $-1 -1 -1 $-1 -7.8765205473846596 17.745483280383155 -3.6000000000000547 #
-267 edge $-1 -1 -1 $-1 $209 3.1415926535898038 $268 4.6347693313048408 $205 $320 forward @7 unknown F #
-268 vertex $-1 -1 -1 $-1 $267 $321 #
-269 intcurve-curve $-1 -1 -1 $-1 forward { exactcur full nurbs 3 open 2 
	4.6347693313048408 3 4.7900086294645403 3 
	-4.4864509822436887 9.5934976000507195 -0.34893779377510148 1 
	-4.504525422961148 9.5312285505629877 -0.11654653734787322 0.99799273811017675 
	-4.504525422961148 9.4687714494370017 0.11654653734778216 0.99799273811017675 
	-4.4864509822436958 9.4065023999492716 0.34893779377500989 1 
	0 
	null_surface 
	null_surface 
	nullbs 
	nullbs 
	-1 
	-1 
	I I 
	0 
	0 
	0 
	
	-1 
	none F F 1 F 0 } I I #
-270 straight-curve $-1 -1 -1 $-1 0 22.452418298798818 -4.5 -0 -1000 -0 I I #
-271 point $-1 -1 -1 $-1 0 0 -4.5 #
-272 coedge $-1 -1 -1 $-1 $234 $205 $262 $306 reversed $207 $322 #
-273 pcurve $-1 -1 -1 $-1 0 forward { exppc nubs 2 open 7 
	3.1415926535898038 2 3.3904554332089765 2 3.6393182128281496 2 3.8881809924473223 2 4.1370437720664945 2 
	4.3859065516856681 2 4.6347693313048408 2 
	0.50000000000000278 0 
	0.530552340425826 0 
	0.5640049555553639 0 
	0.59745422799693393 1.0630468873104353e-017 
	0.63423690707477565 2.2320323284419876e-017 
	0.67101534740617363 3.0822180909729979e-016 
	0.71165104959580794 6.2410816883365646e-016 
	0.75228131273037269 3.284173807517378e-016 
	0.79740846966503809 0 
	0.84252855538329863 3.7260837289651143e-017 
	0.89293477966636647 7.8887046360369653e-017 
	0.94333167614289781 4.1753957796464088e-017 
	1 0 
	0.001 
	1.3471913449247808e-006 
	spline forward { ref 19 } I I I I 
	} 0 0 #
-274 pcurve $-1 -1 -1 $-1 0 forward { exppc nubs 1 open 2 
	-0.0042745701032315285 1 0.0042745701032315293 1 
	0 0.99999999999999978 
	0 2.9335369292078561e-017 
	0.001 
	-1 
	spline forward { ref 19 } I I I I 
	} 0 0 #
-275 point $-1 -1 -1 $-1 0 10.705771365940052 -4.5000000000000009 #
-276 coedge $-1 -1 -1 $-1 $294 $288 $211 $277 forward $323 $324 #
-277 edge $-1 -1 -1 $-1 $217 1.3948713313702759 $279 1.7467213222195115 $276 $325 forward @7 unknown F #
-278 pcurve $-1 -1 -1 $-1 0 forward { exppc nubs 2 open 7 
	-1.7467213222195115 2 -1.6880796570779721 2 -1.6294379919364332 2 -1.5707963267948937 2 -1.5121546616533545 2 
	-1.4535129965118152 2 -1.3948713313702759 2 
	0.99999999999999978 0.99999999999999989 
	0.91624744975596983 0.99999999999999978 
	0.8328548111775379 0.99999999999999989 
	0.74946204870714872 0.99999999999999989 
	0.6662842440357547 0.99999999999999989 
	0.58310637779033325 1 
	0.5 1 
	0.41689362220966686 1 
	0.33371575596424574 1 
	0.2505379512928515 1 
	0.16714518882246179 1 
	0.083752550244029916 0.99999999999999978 
	2.7081296406330815e-016 0.99999999999999978 
	0.001 
	0.001 
	spline forward { ref 8 } I I I I 
	} 0 0 #
-279 vertex $-1 -1 -1 $-1 $235 $326 #
-280 straight-curve $-1 -1 -1 $-1 6.1814857648143144 12.596912206882111 -2.8744688968874654 396.53924058683498 702.6237807074076 -590.82692343802762 I I #
-281 integer_attrib-name_attrib-gen-attrib $-1 -1 $-1 $-1 $215 2 1 2 1 1 1 1 1 1 1 1 1 1 1 0 1 1 1 @19 Cut-Inspection-Hole 0 #
-282 spline-surface $-1 -1 -1 $-1 forward { ref 8 } I I I I #
-283 edge $-1 -1 -1 $-1 $327 -0.008736919630992511 $217 0.010127323583428514 $288 $328 forward @7 unknown F #
-284 point $-1 -1 -1 $-1 7.8765205473849251 17.745483280383063 -3.5999999999999135 #
-285 integer_attrib-name_attrib-gen-attrib $-1 -1 $-1 $-1 $221 2 1 2 1 1 1 1 1 1 1 1 1 1 1 0 1 1 1 @19 Cut-Inspection-Hole 0 #
-286 spline-surface $-1 -1 -1 $-1 forward { ref 17 } I I I I #
-287 coedge $-1 -1 -1 $-1 $260 $223 $329 $330 forward $163 $-1 #
-288 coedge $-1 -1 -1 $-1 $276 $331 $223 $283 forward $323 $332 #
-289 integer_attrib-name_attrib-gen-attrib $-1 -1 $-1 $-1 $225 2 1 2 1 1 1 1 1 1 1 1 1 1 1 0 1 1 1 @19 Cut-Inspection-Hole 0 #
-290 face $333 -1 -1 $-1 $74 $323 $4 $-1 $334 forward single F F #
-291 spline-surface $-1 -1 -1 $-1 forward { ref 24 } I I I I #
-292 integer_attrib-name_attrib-gen-attrib $-1 -1 $-1 $-1 $228 2 1 2 1 1 1 1 1 1 1 1 1 1 1 0 1 1 1 @19 Cut-Inspection-Hole 0 #
-293 plane-surface $-1 -1 -1 $-1 -2.6796161035172861 18.294692077166172 8.1037335577546372 0.95658383159815163 0.29145732642189504 0 -291.45732642189506 956.58383159815162 0 forward_v I I I I #
-294 coedge $-1 -1 -1 $-1 $331 $276 $231 $295 forward $323 $335 #
-295 edge $-1 -1 -1 $-1 $279 -3.5526949706182274e-018 $298 0.021009216450639148 $294 $336 forward @7 unknown F #
-296 tcoedge-coedge $-1 -1 -1 $-1 $329 $232 $237 $304 forward $229 $337 0 0.0018040061769290373 F #
-297 tcoedge-coedge $-1 -1 -1 $-1 $232 $329 $331 $338 forward $229 $339 1.3010426069826053e-018 0.0018039587650965005 F #
-298 tvertex-vertex $-1 -1 -1 $-1 $338 $340 1.2623387138745463e-014 #
-299 ellipse-curve $-1 -1 -1 $-1 0 14.609564798694311 -5.400000000000059 -5.4556447975393507e-017 2.7490899978555434e-015 -1 4.1549759546387734e-014 -23.390435201305689 -6.4184768611141862e-014 1 I I #
-300 pcurve $-1 -1 -1 $-1 0 forward { exppc nubs 1 open 2 
	-3.5527136788004956e-018 1 0.015753041094769594 1 
	1 1 
	0 0.99999999999999967 
	0.001 
	-1 
	spline forward { ref 19 } I I I I 
	} 0 0 #
-301 straight-curve $-1 -1 -1 $-1 -7.8765205473846596 15.600326813713593 -5.4000000000000608 -1000 5.9464751687755107e-012 -8.8095928426303869e-012 I I #
-302 coedge $-1 -1 -1 $-1 $237 $236 $260 $317 forward $238 $341 #
-303 pcurve $-1 -1 -1 $-1 0 forward { exppc nubs 2 open 7 
	1.3948713313702736 2 1.453512996511815 2 1.5121546616533561 2 1.5707963267948972 2 1.6294379919364386 2 
	1.6880796570779795 2 1.7467213222195208 2 
	8.2560059409358996e-019 4.3681661309916166e-017 
	0.083752550244030596 2.1793801064729119e-017 
	0.16714518882246351 0 
	0.25053795129285239 4.8279923650799127e-017 
	0.3337157559642458 9.6435398298876565e-017 
	0.41689362220966775 4.8196969531667994e-017 
	0.50000000000000189 0 
	0.58310637779033514 0 
	0.66628424403575637 0 
	0.74946204870714972 1.5387556394754801e-033 
	0.83285481117753857 3.0814879110195774e-033 
	0.91624744975597039 4.0938531643688355e-018 
	1 8.2053748608313587e-018 
	0.001 
	0.001 
	spline forward { ref 24 } I I I I 
	} 0 0 #
-304 tedge-edge $-1 -1 -1 $-1 $241 0 $342 0.0018040061769290373 $296 $343 forward @7 unknown F 0.00016361117644234395 #
-305 pcurve $-1 -1 -1 $-1 0 reversed { exppc nubs 5 open 11 
	0 5 0.00018040061769290374 1 0.00036080123538580747 3 0.00054120185307871124 3 0.00072160247077161495 1 
	0.00090200308846451866 3 0.0010824037061574225 3 0.0012628043238503261 3 0.0014432049415432299 1 0.0016236055592361337 1 
	0.0018040061769290373 5 
	0 0.93792019391515058 
	0.0200396267617329 0.93771071710387066 
	0.060107259332805543 0.93729833266535312 
	0.10015327321101285 0.93689932947252974 
	0.14018084523494656 0.93651419742763042 
	0.20019914321408211 0.93595805143620325 
	0.24019748281565673 0.93560190531560561 
	0.26019356652363579 0.93542754915561066 
	0.30018031043536486 0.93508639630694612 
	0.36014638309123331 0.93459772344194747 
	0.40011588687869953 0.93428756465785778 
	0.44008046874112333 0.93399353450563816 
	0.50002436446725196 0.93357744428603628 
	0.53998646341095291 0.93331694049738823 
	0.55996775835142598 0.93319097440630128 
	0.59993158405299596 0.93294774041315198 
	0.63989938982739969 0.93272215499293465 
	0.65988466484416008 0.93261383747407589 
	0.69985872269444482 0.93240627842975676 
	0.75983266747996125 0.93212254203308653 
	0.81982180485236023 0.93186678199171336 
	0.87984086652415061 0.93165410110952507 
	0.93990109826688184 0.93148613571988148 
	0.97996308825661849 0.93139450280844749 
	1 0.93135383001333494 
	3.8416178513371888e-008 
	2.2278058132776917e-009 
	spline forward { ref 24 } I I I I 
	} 0 0 #
-306 edge $-1 -1 -1 $-1 $240 -0.0042745701032315233 $268 0.0042745701032315241 $262 $344 forward @7 unknown F #
-307 point $-1 -1 -1 $-1 -7.8765205473846631 15.600326813713595 -5.400000000000059 #
-308 point $-1 -1 -1 $-1 -7.9447010147256547 36.609432632231339 -5.4000000000000012 #
-309 edge $-1 -1 -1 $-1 $248 0.0050390697713460601 $312 0.0091938539902697257 $250 $345 forward @7 unknown F #
-310 point $-1 -1 -1 $-1 -1.2109423003073738 13.474399407601535 0 #
-311 face $346 -1 -1 $-1 $-1 $252 $4 $-1 $347 reversed single F F #
-312 vertex $-1 -1 -1 $-1 $256 $348 #
-313 straight-curve $-1 -1 -1 $-1 2.6796161035172861 18.294692077166172 0 291.45732642189506 956.58383159815162 0 I I #
-314 straight-curve $-1 -1 -1 $-1 0 9.5 8.1037335577546372 0 0 -1000 I I #
-315 integer_attrib-name_attrib-gen-attrib $-1 -1 $-1 $-1 $257 2 1 2 1 1 1 1 1 1 1 1 1 1 1 0 1 1 1 @19 Cut-Inspection-Hole 0 #
-316 plane-surface $-1 -1 -1 $-1 2.6796161035172861 18.294692077166172 8.1037335577546372 -0.95658383159815163 0.29145732642189504 0 -291.45732642189506 -956.58383159815162 0 forward_v I I I I #
-317 edge $-1 -1 -1 $-1 $196 -0.010127323583428464 $342 0.0087369196309924832 $302 $349 forward @7 unknown F #
-318 pcurve $-1 -1 -1 $-1 0 forward { exppc nubs 1 open 2 
	-0.0042745701032315233 1 0.0042745701032315241 1 
	0 1 
	0 0 
	0.001 
	-1 
	spline forward { ref 17 } I I I I 
	} 0 0 #
-319 ellipse-curve $-1 -1 -1 $-1 2.4651903288156619e-029 16.672905047048317 -4.4999999999999956 1.0474450083328145e-014 0.6427876096865438 -0.76604444311897435 0 -6.1283555449516172 -5.1423008774922012 1 I I #
-320 intcurve-curve $-1 -1 -1 $-1 forward { exactcur full nurbs 3 open 2 
	3.1415926535898038 3 4.6347693313048408 3 
	0 10.705771365940052 -4.5000000000000009 1 
	-2.4765788299291365 10.705771365940043 -4.5 0.82267341774407932 
	-4.294412770460224 10.255096877174143 -2.8180599102505481 0.82267341774407932 
	-4.4864509822436887 9.5934976000507195 -0.34893779377510148 1 
	0 
	null_surface 
	null_surface 
	nullbs 
	nullbs 
	-1 
	-1 
	I I 
	0 
	0 
	0 
	
	-1 
	none F F 1 F 0 } I I #
-321 point $-1 -1 -1 $-1 -4.4864509822436887 9.5934976000507195 -0.34893779377510148 #
-322 pcurve $-1 -1 -1 $-1 0 forward { exppc nubs 1 open 2 
	-0.0042745701032315241 1 0.0042745701032315233 1 
	1 0 
	1 1 
	0.001 
	-1 
	spline forward { ref 19 } I I I I 
	} 0 0 #
-323 loop $-1 -1 -1 $-1 $-1 $331 $290 F unknown #
-324 pcurve $-1 -1 -1 $-1 0 forward { exppc nubs 2 open 7 
	1.3948713313702759 2 1.4535129965118152 2 1.5121546616533545 2 1.5707963267948937 2 1.629437991936433 2 
	1.6880796570779721 2 1.7467213222195115 2 
	4.6453357791697218e-016 4.8398420030779506e-017 
	0.083752550244030194 2.4147102156084039e-017 
	0.16714518882246215 0 
	0.25053795129285183 0 
	0.33371575596424641 0 
	0.41689362220966747 0 
	0.50000000000000056 0 
	0.58310637779033392 0 
	0.66628424403575515 0 
	0.74946204870714883 0 
	0.8328548111775379 0 
	0.91624744975597028 0 
	1 0 
	0.001 
	0.001 
	spline forward { exactsur full nurbs 3 1 both open open none none 2 2 
	0 3 1 3 
	0 1 1 1 
	7.8765205473849251 17.745483280383063 -3.5999999999999135 1 
	8.0415877536261728 17.034148301435934 -4.1968809184779534 0.98971004561540787 
	8.0415877536261746 16.31166179266063 -4.8031190815218769 0.98971004561540787 
	7.876520547384934 15.600326813713503 -5.3999999999999204 1 
	7.94921379760288 38 -3.5999999999999925 1 
	8.0170006841478756 38 -4.1987249486889029 0.9957678164669066 
	8.0170006841478756 38 -4.8012750513110847 0.9957678164669066 
	7.94921379760288 38 -5.399999999999995 1 
	0 
	0 
	0 
	0 
	0 
	0 
	0 
	F 1 F 0 F 1 F 0 } I I I I 
	} 0 0 #
-325 ellipse-curve $-1 -1 -1 $-1 2.4651903288156619e-029 16.672905047048317 -4.4999999999999956 1.0474450083328145e-014 0.6427876096865438 -0.76604444311897435 0 6.1283555449518214 5.1423008774923726 1 I I #
-326 point $-1 -1 -1 $-1 7.876520547384934 15.600326813713501 -5.3999999999999222 #
-327 tvertex-vertex $-1 -1 -1 $-1 $338 $350 4.8035592509840658e-015 #
-328 straight-curve $-1 -1 -1 $-1 7.9128671724939013 27.872741640191531 -3.599999999999953 -3.5889665032972502 -999.99355963897995 3.8968794423681149e-012 I I #
-329 coedge $-1 -1 -1 $-1 $297 $296 $287 $330 reversed $229 $-1 #
-330 edge $-1 -1 -1 $-1 $327 -1.9173257304536184 $342 -1.224266923136172 $287 $351 forward @7 unknown F #
-331 tcoedge-coedge $-1 -1 -1 $-1 $288 $294 $297 $338 reversed $323 $352 -0.0018039587650965005 -1.3010426069826053e-018 F #
-332 pcurve $-1 -1 -1 $-1 0 forward { exppc nubs 1 open 2 
	-0.008736919630992511 1 0.010127323583428514 1 
	0 0.93135383001333427 
	0 0 
	0.001 
	-1 
	spline forward { ref 42 } I I I I 
	} 0 0 #
-333 integer_attrib-name_attrib-gen-attrib $-1 -1 $-1 $-1 $290 2 1 2 1 1 1 1 1 1 1 1 1 1 1 0 1 1 1 @19 Cut-Inspection-Hole 0 #
-334 spline-surface $-1 -1 -1 $-1 forward { ref 42 } I I I I #
-335 pcurve $-1 -1 -1 $-1 0 forward { exppc nubs 1 open 2 
	-3.5526949706182274e-018 1 0.021009216450639148 1 
	1 0 
	1 0.93792019391515102 
	0.001 
	-1 
	spline forward { ref 42 } I I I I 
	} 0 0 #
-336 straight-curve $-1 -1 -1 $-1 7.876520547384934 15.600326813713504 -5.3999999999999213 3.2452646437779942 999.9947341148312 -3.2913587124489316e-012 I I #
-337 pcurve $-1 -1 -1 $-1 0 forward { exppc nubs 2 open 7 
	0 2 0.00030066769615483952 2 0.00060133539230967903 2 0.00090200308846451866 2 0.0012026707846193581 2 
	0.0015033384807741979 2 0.0018040061769290373 2 
	0.11559141736720271 1.9173474273323365 
	0.1219733914027972 1.9181812756383081 
	0.12838228609176058 1.9187383129030455 
	0.13479277045830712 1.9192954883366398 
	0.14121585071333634 1.9195744636282317 
	0.14764410827790447 1.9198536637872363 
	0.15407055530421288 1.9198535815496256 
	0.16050581231943289 1.9198534991992757 
	0.16692484393667306 1.9195733675306332 
	0.17335625946074751 1.9192926954184018 
	0.17975716068299979 1.9187315185847651 
	0.18617385816934318 1.918168956868413 
	0.19254594961547605 1.9173257304536193 
	0.001 
	4.3885399666672738e-006 
	cone 0 14.609564798694311 -8.1037335577546372 0 0 1 23.390435201305689 0 0 1 I I 0 1 23.390435201305689 forward I I I I 
	} 0 0 #
-338 tedge-edge $-1 -1 -1 $-1 $327 1.3010426069826053e-018 $298 0.0018039587650965005 $297 $353 forward @7 unknown F 0.00016327280714180243 #
-339 pcurve $-1 -1 -1 $-1 0 forward { exppc nubs 2 open 7 
	1.3010426069826053e-018 2 0.00030065979418275113 2 0.00060131958836550097 2 0.00090197938254825091 2 0.0012026391767310006 2 
	0.0015032989709137508 2 0.0018039587650965005 2 
	0.19254594961547544 1.2242669231361729 
	0.18617384294375783 1.2234236947065595 
	0.17975717306860522 1.2228611313278508 
	0.17335628003453865 1.222299951139052 
	0.16692489860219481 1.2220192762813684 
	0.16050588564541723 1.2217391412019822 
	0.15407065600754696 1.2217390566590547 
	0.14764422513302317 1.2217389722317211 
	0.14121597507596406 1.2220181723951162 
	0.13479289544094941 1.2222971479899793 
	0.12838238559874851 1.2228543272737245 
	0.12197346293254363 1.2234113686056363 
	0.11559141736720316 1.2242452262574557 
	0.001 
	4.3831703634444077e-006 
	cone 0 14.609564798694311 -8.1037335577546372 0 0 1 23.390435201305689 0 0 1 I I 0 1 23.390435201305689 forward I I I I 
	} 0 0 #
-340 point $-1 -1 -1 $-1 7.9447010147256725 36.609432632231339 -5.3999999999999906 #
-341 pcurve $-1 -1 -1 $-1 0 forward { exppc nubs 1 open 2 
	-0.010127323583428464 1 0.0087369196309924832 1 
	1 1.7540126810281572e-016 
	1 0.93135383001333483 
	0.001 
	-1 
	spline forward { ref 24 } I I I I 
	} 0 0 #
-342 tvertex-vertex $-1 -1 -1 $-1 $304 $354 1.5652113043465967e-013 #
-343 intcurve-curve $-1 -1 -1 $-1 forward { exactcur full nubs 3 open 2 
	0 3 0.0018040061769290373 3 
	-7.9447010147256547 36.609432632231339 -5.4000000000000012 
	-8.0180699541796923 36.582937278161928 -4.802966838492515 
	-8.0185189076505967 36.582776966191553 -4.1969164081268566 
	-7.9442236843915159 36.609605002267429 -3.5999999999999748 
	0 
	null_surface 
	null_surface 
	nullbs 
	nullbs 
	-1 
	-1 
	I I 
	0 
	0 
	0 
	
	-1 
	none F F 1 F 0 } I I #
-344 straight-curve $-1 -1 -1 $-1 -6.181485764814175 12.596912206882159 -2.8744688968875791 396.5392405868044 -702.62378070741988 590.82692343803342 I I #
-345 straight-curve $-1 -1 -1 $-1 -2.6796161035172861 18.294692077166172 0 291.45732642189506 -956.58383159815162 0 I I #
-346 integer_attrib-name_attrib-gen-attrib $-1 -1 $-1 $-1 $311 2 1 2 1 1 1 1 1 1 1 1 1 1 1 0 1 1 1 @19 Cut-Inspection-Hole 0 #
-347 plane-surface $-1 -1 -1 $-1 2.6796161035172861 18.294692077166172 0 0 0 -1 -1000 0 0 forward_v I I I I #
-348 point $-1 -1 -1 $-1 0 9.5 0 #
-349 straight-curve $-1 -1 -1 $-1 -7.9128671724937698 27.872741640191574 -3.6000000000000254 -3.588966503310369 999.99355963897995 2.9547767200373745e-012 I I #
-350 point $-1 -1 -1 $-1 7.9442236843915337 36.609605002267415 -3.5999999999999885 #
-351 ellipse-curve $-1 -1 -1 $-1 0 14.609564798694311 -3.5999999999999712 -8.6994729320974869e-015 4.1208309285242907e-015 1 -23.390435201305689 4.163336342344337e-014 -2.0339632755828063e-013 1 I I #
-352 pcurve $-1 -1 -1 $-1 0 reversed { exppc nubs 5 open 11 
	1.3010426069826053e-018 5 0.00018039587650965123 3 0.00036079175301930117 1 0.00054118762952895115 3 0.00072158350603860103 1 
	0.00090197938254825091 1 0.001082375259057901 3 0.0012627711355675509 1 0.0014431670120772008 1 0.0016235628885868506 1 
	0.0018039587650965005 5 
	7.3394595945978437e-016 0.93135383001333427 
	0.020036929446573409 0.93139450284438241 
	0.040067929278886139 0.93144031922333759 
	0.060093458523225188 0.93149122150337327 
	0.10013446256005108 0.93160308026610528 
	0.16016838843359965 0.93180067283842938 
	0.20017434100563136 0.93195203204989419 
	0.24016697047324193 0.93212253733963291 
	0.30014070144419125 0.93240627145097832 
	0.36010156105411245 0.9327176076223036 
	0.42005189116357045 0.93305617173801603 
	0.47999332109987847 0.93343444749722804 
	0.53993594024417546 0.93385072639048028 
	0.59988378543774223 0.93429157976974586 
	0.65983907516494456 0.93475662771783741 
	0.7198040257275452 0.9352454901381112 
	0.79978551300772549 0.93594341942850534 
	0.87982258792320944 0.93669981500150468 
	0.93989211787872806 0.93729832701069538 
	0.97996014470145509 0.93771071471494627 
	1 0.93792019391515102 
	2.0394879939243852e-007 
	9.6598427399695703e-009 
	spline forward { ref 42 } I I I I 
	} 0 0 #
-353 intcurve-curve $-1 -1 -1 $-1 forward { exactcur full nubs 3 open 2 
	1.3010426069826053e-018 3 0.0018039587650965005 3 
	7.9442236843915337 36.609605002267415 -3.5999999999999885 
	8.0185189732925988 36.582776942488195 -4.1969169355197815 
	8.0180707908970668 36.582936976002415 -4.8029600297800954 
	7.9447010147256725 36.609432632231339 -5.3999999999999906 
	0 
	null_surface 
	null_surface 
	nullbs 
	nullbs 
	-1 
	-1 
	I I 
	0 
	0 
	0 
	
	-1 
	none F F 1 F 0 } I I #
-354 point $-1 -1 -1 $-1 -7.9442236843915159 36.609605002267429 -3.5999999999999748 #
End-of-ACIS-data 